<svg style="position: absolute; width: 0; height: 0; overflow: hidden;" version="1.1" xmlns="http://www.w3.org/2000/svg" xmlns:xlink="http://www.w3.org/1999/xlink">
<defs>
<symbol id="icon-category" viewBox="-3 -3 38 38">
<title>category</title>
<g>
<path d="M26.781 17.486h-7.069c-1.714 0-3.104 1.39-3.104 3.104v5.734c0 1.714 1.39 3.104 3.104 3.104h7.069c1.714 0 3.104-1.39 3.104-3.104v-5.734c-0-1.714-1.39-3.104-3.104-3.104z"></path>
<path d="M12.205 17.486h-7.069c-1.714 0-3.104 1.39-3.104 3.104v5.734c0 1.714 1.39 3.104 3.104 3.104h7.069c1.714 0 3.104-1.39 3.104-3.104v-5.734c0-1.714-1.39-3.104-3.104-3.104z"></path>
<path d="M26.781 2.91h-7.069c-1.714 0-3.104 1.39-3.104 3.104v5.734c0 1.714 1.39 3.104 3.104 3.104h7.069c1.714 0 3.104-1.39 3.104-3.104v-5.734c-0-1.714-1.39-3.104-3.104-3.104z"></path>
<path d="M11.757 2.873h-6.172c-1.962 0-3.553 1.591-3.553 3.553v6.172c0 1.962 1.591 3.553 3.553 3.553h6.172c1.962 0 3.553-1.591 3.553-3.553v-6.172c0-1.962-1.591-3.553-3.553-3.553zM13.974 12.598c0 1.225-0.993 2.217-2.217 2.217h-6.172c-1.225 0-2.217-0.993-2.217-2.217v-6.172c0-1.225 0.993-2.217 2.217-2.217h6.172c1.225 0 2.217 0.993 2.217 2.217v6.172z"></path></g>
</symbol>
<symbol id="icon-home-fill" viewBox="0 -3 32 32">
<title>home-fill</title>
<path d="M29.2 15.4c0 0.2-0.2 0.2-0.4 0.2 0 0 0 0 0 0-0.2 0-0.2 0-0.4-0.2l-12.4-10.2-12.4 10.2c-0.2 0-0.2 0.2-0.4 0.2s-0.2 0-0.4-0.2l-1-1.4c-0.2-0.2-0.2-0.6 0-0.8l12.8-10.6c0.8-0.6 2-0.6 2.8 0l4.4 3.6v-3.6c0-0.4 0.2-0.6 0.6-0.6h3.4c0.4 0 0.6 0.2 0.6 0.6v7.4l4 3.2c0.2 0.2 0.2 0.6 0 0.8l-1.2 1.4zM26.2 23.8c0 0.6-0.6 1.2-1.2 1.2h-6.8v-7h-4.4v6.8h-7c-0.6 0-1.2-0.6-1.2-1.2v-8.4c0 0 0 0 0-0.2l10.4-8.4 10.2 8.4c0 0 0 0 0 0.2v8.6z"></path>
</symbol>
<symbol id="icon-rent-radius" viewBox="0 0 32 32">
<title>rent_radius</title>
<path  d="M26.779 13.477h-3.333l-3.89-5.288c0.116-0.327 0.184-0.704 0.185-1.096-0-1.873-1.546-3.419-3.453-3.419s-3.452 1.546-3.452 3.452c0 0.374 0.075 0.726 0.185 1.063l-3.89 5.288h-3.333c-1.601 0-2.9 1.298-2.9 2.9v8.285c0 1.602 1.298 2.9 2.9 2.9 0 0 0 0 0 0h20.983c1.602 0 2.9-1.298 2.9-2.9 0 0 0 0 0 0v-8.285c-0.001-1.601-1.3-2.899-2.901-2.9zM10.576 21.919c0.134 0.214 0.2 0.529 0.2 0.945v1.033h-1.076v-0.84c0-0.194-0.010-0.355-0.027-0.482-0.018-0.137-0.079-0.257-0.17-0.348-0.055-0.065-0.17-0.129-0.299-0.147-0.055-0.012-0.182-0.026-0.313-0.026-0.016 0-0.033 0-0.049 0.001l-1.493-0v1.844h-1.070v-5.576h2.742c0.722 0 1.21 0.141 1.466 0.423 0.224 0.252 0.335 0.663 0.335 1.234 0 0.62-0.083 1.027-0.246 1.22-0.147 0.18-0.394 0.302-0.742 0.365v0.021c0.326 0.031 0.573 0.142 0.742 0.333zM13.98 9.678c0.607 0.557 1.419 0.899 2.312 0.9 0.888-0.002 1.699-0.345 2.307-0.905l2.789 3.805h-10.202l2.795-3.8zM15.452 23.898h-3.843v-5.576h3.829v0.915h-2.757v1.398h2.616v0.869h-2.616v1.48h2.772v0.915zM21.464 23.898h-1.791l-2.365-4.66h-0.044l0.060 2.312 0.029 2.349h-1.078v-5.576h1.777l2.394 4.661h0.029l-0.089-4.661h1.078v5.575zM26.297 19.237h-1.642v4.66h-1.071v-4.66h-1.628v-0.915h4.341v0.915zM9.618 19.436c0.086 0.126 0.128 0.364 0.128 0.715 0 0.381-0.052 0.639-0.156 0.773-0.080 0.082-0.17 0.138-0.27 0.169s-0.244 0.046-0.431 0.046h-1.54v-1.901h1.51c0.196 0 0.355 0.012 0.476 0.036 0.127 0.022 0.234 0.092 0.305 0.19z"></path>
</symbol>
<symbol id="icon-leveling" viewBox="0 0 32 32">
<ellipse cx="7.643" cy="13.139" rx="3.397" ry="3.279"/>
<path d="M2.3,19.628c0.68-1.687,2.04-2.667,3.778-2.667l3.427,0.045c1.744,0.244,2.871,1.536,3.373,2.73  c0.471,1.123,0.38,1.776,0.326,2.938l-11.016-0.01C2.078,21.85,1.938,20.525,2.3,19.628z"/>
<ellipse cx="24.356" cy="13.139" rx="3.396" ry="3.279"/>
<path d="M29.7,19.628c-0.681-1.687-2.04-2.667-3.778-2.667l-3.427,0.045c-1.743,0.244-2.871,1.536-3.372,2.73  c-0.472,1.123-0.381,1.776-0.325,2.938l11.016-0.01C29.922,21.85,30.062,20.525,29.7,19.628z"/>
<path d="M11.003,3.804L9.682,2.112L7.195,7.226l6.273-0.078l-0.964-1.449c0,0,2.741-0.636,5.435-0.182  c2.472,0.418,4.314,1.978,4.8,2.551c0.625,0.272,1.094,0.094,1.359-0.082c0.373-0.245,0.561-0.546,0.38-1.249  c-0.229-0.886-3.141-2.994-6.648-3.483C14.321,2.765,11.275,3.722,11.003,3.804z"/>
<path d="M20.876,28.779l1.32,1.691l2.487-5.113l-6.273,0.078l0.963,1.449c0,0-2.74,0.636-5.433,0.181  c-2.472-0.418-4.315-1.978-4.8-2.552c-0.625-0.271-1.095-0.093-1.36,0.082c-0.372,0.245-0.561,0.545-0.378,1.248  c0.229,0.888,3.14,2.995,6.647,3.484C17.558,29.818,20.604,28.86,20.876,28.779z"/>
</symbol>
<symbol id="icon-user-fill" viewBox="0 0 36 36">
<title>user-fill</title>
<path d="M18 22.082v-1.649c2.203-1.241 4-4.337 4-7.432 0-4.971 0-9-6-9s-6 4.029-6 9c0 3.096 1.797 6.191 4 7.432v1.649c-6.784 0.555-12 3.888-12 7.918h28c0-4.030-5.216-7.364-12-7.918z"></path>
</symbol>
</defs>
</svg>
